<?xml version="1.0" encoding="UTF-8" standalone="no"?>
<!DOCTYPE svg PUBLIC "-//W3C//DTD SVG 1.1//EN" "http://www.w3.org/Graphics/SVG/1.1/DTD/svg11.dtd">
<svg xmlns="http://www.w3.org/2000/svg" xmlns:xlink="http://www.w3.org/1999/xlink" version="1.1" width="1000" height="1000" viewBox="0 0 1000 1000" xml:space="preserve">
<desc>Created with Fabric.js 3.6.6</desc>
<defs>
</defs>
<g transform="matrix(2.67 0 0 2.67 500.86 499.89)">
<g style="">
		<g transform="matrix(8.14 0 0 10.12 0 100.07)">
<radialGradient id="SVGID_34" gradientUnits="userSpaceOnUse" gradientTransform="matrix(1.64 0 0 0.61 0 0)" cx="15.115514" cy="63.965388" r="12.289036" fx="15.115514" fy="63.965388">
<stop offset="0%" style="stop-color:rgb(0,0,0);stop-opacity: 1"/>
<stop offset="100%" style="stop-color:rgb(0,0,0);stop-opacity: 0"/>
</radialGradient>
<path style="stroke: none; stroke-width: 1; stroke-dasharray: none; stroke-linecap: butt; stroke-dashoffset: 0; stroke-linejoin: miter; stroke-miterlimit: 4; fill: url(#SVGID_34); fill-rule: nonzero; opacity: 1;" transform=" translate(-24.85, -38.91)" d="M 45.052803 38.908627 a 20.203051 7.4751287 0 1 1 -40.4061012 0 a 20.203051 7.4751287 0 1 1 40.4061012 0 z" stroke-linecap="round"/>
</g>
		<g transform="matrix(8.14 0 0 8.14 -2.28 -18.89)">
<radialGradient id="SVGID_35" gradientUnits="userSpaceOnUse" gradientTransform="matrix(1 0 0 1 0 0)" cx="18.247644" cy="15.716079" r="29.993349" fx="18.247644" fy="15.716079">
<stop offset="0%" style="stop-color:rgb(211,233,255);stop-opacity: 1"/>
<stop offset="15.517241%" style="stop-color:rgb(211,233,255);stop-opacity: 1"/>
<stop offset="75%" style="stop-color:rgb(64,116,174);stop-opacity: 1"/>
<stop offset="100%" style="stop-color:rgb(54,72,108);stop-opacity: 1"/>
</radialGradient>
<path style="stroke: rgb(57,57,108); stroke-width: 1; stroke-dasharray: none; stroke-linecap: butt; stroke-dashoffset: 0; stroke-linejoin: miter; stroke-miterlimit: 4; fill: url(#SVGID_35); fill-rule: nonzero; opacity: 1;" transform=" translate(-24.57, -23.49)" d="M 43.959853 23.485499 c 0 10.709718 -8.682103 19.391723 -19.390348 19.391723 c -10.709226 0 -19.3908387 -8.682103 -19.3908387 -19.391723 c 0 -10.709227 8.6816127 -19.3903473 19.3908387 -19.3903473 c 10.708245 0 19.390348 8.6811203 19.390348 19.3903473 z" stroke-linecap="round"/>
</g>
		<g transform="matrix(8 0 0 8 53.33 -31.93)">
<path style="stroke: none; stroke-width: 1; stroke-dasharray: none; stroke-linecap: butt; stroke-dashoffset: 0; stroke-linejoin: miter; stroke-miterlimit: 4; fill: rgb(32,74,135); fill-opacity: 0.71; fill-rule: nonzero; opacity: 1;" transform=" translate(-31.84, -22.03)" d="M 44.0713 20.7144 c 0 0.2627 0 0 0 0 l -0.5449 0.6172 c -0.334 -0.3936 -0.709 -0.7246 -1.0898 -1.0703 l -0.8359 0.123 l -0.7637 -0.8633 v 1.0684 l 0.6543 0.4951 l 0.4355 0.4932 l 0.582 -0.6582 c 0.1465 0.2744 0.291 0.5488 0.4365 0.8232 v 0.8223 l -0.6553 0.7402 l -1.1992 0.8232 l -0.9082 0.9063 l -0.582 -0.6602 l 0.291 -0.7402 l -0.5811 -0.6582 l -0.9814 -2.0977 l -0.8359 -0.9453 l -0.2188 0.2461 l 0.3281 1.1934 l 0.6172 0.6992 c 0.3525 1.0176 0.7012 1.9902 1.1641 2.9629 c 0.7178 0 1.3945 -0.0762 2.1074 -0.166 v 0.5762 l -0.8721 2.1392 l -0.7998 0.9043 l -0.6543 1.4004 v 2.3027 l 0.2188 0.9063 l -0.3633 0.4102 l -0.8008 0.4941 l -0.8359 0.6992 l 0.6914 0.7813 l -0.9453 0.8242 l 0.1816 0.5332 l -1.418 1.6055 h -0.9443 l -0.7998 0.4941 h -0.5098 v -0.6582 l -0.2168 -1.3184 c -0.2813 -0.8262 -0.5742 -1.6465 -0.8721 -2.4668 c 0 -0.6055 0.0361 -1.2051 0.0723 -1.8105 l 0.3643 -0.8223 l -0.5098 -0.9883 l 0.0371 -1.3574 l -0.6914 -0.7813 l 0.3457 -1.1309 l -0.5625 -0.6382 h -0.9824 l -0.3271 -0.3701 l -0.9814 0.6177 l -0.3994 -0.4536 l -0.9092 0.7817 c -0.6172 -0.6997 -1.2354 -1.3989 -1.8535 -2.0981 l -0.7266 -1.7285 l 0.6543 -0.9863 l -0.3633 -0.4111 l 0.7988 -1.8936 c 0.6563 -0.8164 1.3418 -1.5996 2.0352 -2.3857 l 1.2363 -0.3291 l 1.3809 -0.1641 l 0.9453 0.2471 L 33.459 19.15 l 0.4727 -0.5342 l 0.6533 -0.082 l 1.2363 0.4111 h 0.9453 l 0.6543 -0.5762 l 0.291 -0.4111 l -0.6553 -0.4111 l -1.0908 -0.082 c -0.3027 -0.4199 -0.584 -0.8613 -0.9434 -1.2344 l -0.3643 0.1641 l -0.1455 1.0703 l -0.6543 -0.7402 l -0.1445 -0.8242 l -0.7266 -0.5742 h -0.292 l 0.7275 0.8223 l -0.291 0.7402 l -0.5811 0.1641 l 0.3633 -0.7402 l -0.6553 -0.3281 l -0.5801 -0.6582 l -1.0918 0.2461 l -0.1445 0.3281 l -0.6543 0.4121 l -0.3633 0.9053 l -0.9082 0.4521 l -0.4004 -0.4521 h -0.4355 v -1.4814 l 0.9453 -0.4941 h 0.7266 l -0.1465 -0.5752 l -0.5801 -0.5762 l 0.9805 -0.2061 l 0.5449 -0.6162 l 0.4355 -0.7412 h 0.8008 l -0.2188 -0.5752 l 0.5098 -0.3291 v 0.6582 l 1.0898 0.2461 l 1.0898 -0.9043 l 0.0732 -0.4121 l 0.9443 -0.6577 c -0.3418 0.0425 -0.6836 0.0737 -1.0176 0.1646 v -0.7411 l 0.3633 -0.8228 h -0.3633 l -0.7984 0.7402 l -0.2188 0.4116 l 0.2188 0.5767 l -0.3643 0.9863 l -0.5811 -0.3291 l -0.5078 -0.5752 l -0.8008 0.5752 l -0.291 -1.3159 l 1.3809 -0.9048 v -0.4941 l 0.873 -0.5757 l 1.3809 -0.3296 l 0.9453 0.3296 l 1.7441 0.3291 l -0.4355 0.4932 h -0.9453 l 0.9453 0.9873 l 0.7266 -0.8223 l 0.2207 -0.3618 s 2.7871 2.498 4.3799 5.2305 c 1.5928 2.7334 2.3408 5.9551 2.3408 6.6094 z M 26.0703 9.2363 l -0.0732 0.4932 l 0.5098 0.3291 l 0.8711 -0.5757 l -0.4355 -0.4937 l -0.582 0.3296 l -0.29 -0.0825 m 0.7996 -3.373 l -1.8906 -0.7407 l -2.1797 0.2466 l -2.6904 0.7402 l -0.5088 0.4941 l 1.6719 1.1514 v 0.6582 l -0.6543 0.6582 l 0.873 1.729 l 0.5801 -0.3301 l 0.7285 -1.1514 c 1.123 -0.3472 2.1299 -0.7407 3.1973 -1.2344 l 0.873 -2.2212 m 1.9629 6.9117 l -0.291 -0.7412 l -0.5098 0.165 l 0.1465 0.9043 l 0.6543 -0.3281" stroke-linecap="round"/>
</g>
		<g transform="matrix(8 0 0 8 -57.11 -13.01)">
<path style="stroke: none; stroke-width: 1; stroke-dasharray: none; stroke-linecap: butt; stroke-dashoffset: 0; stroke-linejoin: miter; stroke-miterlimit: 4; fill: rgb(32,74,135); fill-opacity: 0.71; fill-rule: nonzero; opacity: 1;" transform=" translate(-18.03, -24.4)" d="m 29.123 12.6089 l -0.1455 0.9883 l 0.7998 -0.165 l 0.5811 -0.5752 l -0.5088 -0.4941 c -0.1709 -0.4551 -0.3672 -0.8799 -0.5811 -1.3164 h -0.4355 v 0.4932 l 0.29 0.3291 v 0.7402 M 18.3652 28.2422 l -0.582 -1.1523 l -1.0903 -0.2466 l -0.5815 -1.5625 l -1.4536 0.1641 l -1.2354 -0.9043 l -1.3091 1.1514 v 0.1816 c -0.396 -0.1143 -0.8828 -0.1299 -1.2354 -0.3467 l -0.291 -0.8223 v -0.9053 l -0.8721 0.082 c 0.0728 -0.5762 0.145 -1.1514 0.2183 -1.7275 h -0.5093 l -0.5083 0.6582 l -0.5093 0.2461 l -0.7271 -0.4102 l -0.0728 -0.9053 l 0.1455 -0.9873 l 1.0908 -0.8223 h 0.8721 l 0.145 -0.4941 l 1.0903 0.2461 l 0.7998 0.9883 l 0.1455 -1.6465 l 1.3813 -1.1514 l 0.5088 -1.2344 l 1.0176 -0.4111 l 0.5815 -0.8223 l 1.3081 -0.248 l 0.6548 -0.9863 h -1.9629 l 1.2358 -0.5762 h 0.8716 l 1.2363 -0.4121 l 0.1455 -0.4922 l -0.4365 -0.4121 l -0.5088 -0.165 l 0.1455 -0.4932 l -0.3633 -0.7402 l -0.8726 0.3281 l 0.1455 -0.6577 l -1.0176 -0.5762 l -0.7993 1.3979 l 0.0723 0.4941 l -0.7993 0.3301 l -0.5093 1.0693 l -0.2178 -0.9873 l -1.3813 -0.5762 l -0.2183 -0.7402 l 1.8174 -1.0703 l 0.7998 -0.7402 l 0.0728 -0.9048 l -0.436 -0.2471 l -0.5815 -0.0825 l -0.3633 0.9053 s -0.6079 0.1191 -0.7642 0.1577 c -1.9961 1.8394 -6.0293 5.8101 -6.9663 13.3062 c 0.0371 0.1738 0.6792 1.1816 0.6792 1.1816 l 1.5264 0.9043 l 1.5264 0.4121 l 0.6548 0.8232 l 1.0171 0.7402 l 0.5815 -0.082 l 0.436 0.1963 v 0.1328 l -0.5811 1.563 l -0.4365 0.6582 l 0.1455 0.3301 l -0.3633 1.2324 l 1.3086 2.3867 l 1.3081 1.1523 l 0.582 0.8223 l -0.0732 1.7285 l 0.4365 0.9863 l -0.4365 1.8926 s -0.0342 -0.0117 0.0215 0.1777 c 0.0562 0.1895 2.3291 1.4512 2.4736 1.3438 c 0.144 -0.1094 0.2671 -0.2051 0.2671 -0.2051 l -0.145 -0.4102 l 0.5811 -0.5762 l 0.2183 -0.5762 l 0.9453 -0.3301 l 0.7266 -1.8105 l -0.2178 -0.4922 l 0.5078 -0.7402 l 1.0908 -0.248 l 0.582 -1.3164 l -0.1455 -1.6445 l 0.8721 -1.2344 l 0.1455 -1.2344 c -1.1934 -0.5918 -2.377 -1.2012 -3.5615 -1.8105 M 16.7656 9.5649 l 0.7266 0.4937 h 0.582 v -0.5757 l -0.7266 -0.3291 l -0.582 0.4111" stroke-linecap="round"/>
</g>
		<g transform="matrix(8 0 0 8 -62.85 -128.37)">
<path style="stroke: none; stroke-width: 1; stroke-dasharray: none; stroke-linecap: butt; stroke-dashoffset: 0; stroke-linejoin: miter; stroke-miterlimit: 4; fill: rgb(32,74,135); fill-opacity: 0.71; fill-rule: nonzero; opacity: 1;" transform=" translate(-17.31, -9.98)" d="m 14.876 8.9072 l -0.3638 0.9048 h 0.7271 l 0.3638 -0.8228 c 0.3135 -0.2217 0.6255 -0.4448 0.9448 -0.6582 l 0.7271 0.2471 c 0.4844 0.3291 0.9688 0.6582 1.4536 0.9868 l 0.7275 -0.6577 l -0.8003 -0.3291 l -0.3638 -0.7407 l -1.3809 -0.1646 l -0.0728 -0.4116 l -0.6543 0.165 l -0.2904 0.5758 l -0.3638 -0.7407 l -0.145 0.3291 l 0.0728 0.8228 l -0.5816 0.494 m 2.6162 -2.0576 l 0.3638 -0.3286 l 0.7271 -0.1646 c 0.498 -0.2422 0.998 -0.4053 1.5264 -0.5762 l -0.29 -0.4937 l -0.9385 0.1348 l -0.4434 0.4419 l -0.731 0.106 l -0.6499 0.3052 l -0.3159 0.1528 l -0.1929 0.2583 l 0.9443 0.1641 m 1.2363 7.8169 l 0.4365 -0.6582 l -0.6548 -0.4932 l 0.2183 1.1514" stroke-linecap="round"/>
</g>
		<g transform="matrix(8.14 0 0 8.14 -2.29 -18.88)">
<radialGradient id="SVGID_36" gradientUnits="userSpaceOnUse" gradientTransform="matrix(1 0 0 1 0 0)" cx="15.601279" cy="12.142302" r="43.526714" fx="15.601279" fy="12.142302">
<stop offset="0%" style="stop-color:rgb(255,255,255);stop-opacity: 1"/>
<stop offset="100%" style="stop-color:rgb(255,255,255);stop-opacity: 0.16494845"/>
</radialGradient>
<path style="stroke: url(#SVGID_36); stroke-width: 1; stroke-dasharray: none; stroke-linecap: butt; stroke-dashoffset: 0; stroke-linejoin: miter; stroke-miterlimit: 4; fill: none; fill-rule: nonzero; opacity: 0.4;" transform=" translate(-24.57, -23.49)" d="M 42.975093 23.485534 c 0 10.16582 -8.241178 18.406906 -18.4056 18.406906 c -10.165354 0 -18.4060669 -8.241179 -18.4060669 -18.406906 c 0 -10.165354 8.2407129 -18.4056 18.4060669 -18.4056 c 10.164422 0 18.4056 8.240246 18.4056 18.4056 z" stroke-linecap="round"/>
</g>
</g>
</g>
</svg>